<svg preserveAspectRatio="none" overflow="visible" style="display: block;" width="11.9717" height="8.9375" viewBox="0 0 11.9717 8.9375" fill="none" xmlns="http://www.w3.org/2000/svg">
<g id="Container">
<path id="Icon" d="M5.68115 7.12842L5.07812 8.78516H0V8.55029C1.49382 7.18766 2.54541 6.07471 3.15479 5.21143C3.76416 4.34814 4.06885 3.55892 4.06885 2.84375C4.06885 2.29785 3.90169 1.84928 3.56738 1.49805C3.23307 1.14681 2.83317 0.971191 2.36768 0.971191C1.9445 0.971191 1.5647 1.09497 1.22827 1.34253C0.891846 1.59009 0.643229 1.95296 0.482422 2.43115H0.247559C0.353353 1.64827 0.625244 1.04736 1.06323 0.628418C1.50122 0.209473 2.04818 0 2.7041 0C3.40234 0 3.98527 0.224284 4.45288 0.672852C4.92049 1.12142 5.1543 1.65039 5.1543 2.25977C5.1543 2.69564 5.05273 3.13151 4.84961 3.56738C4.53646 4.25293 4.02865 4.97868 3.32617 5.74463C2.27246 6.89567 1.61442 7.58968 1.35205 7.82666H3.59912C4.05615 7.82666 4.37671 7.80973 4.56079 7.77588C4.74487 7.74202 4.91097 7.67326 5.05908 7.56958C5.20719 7.4659 5.33626 7.31885 5.44629 7.12842H5.68115V7.12842M8.71533 4.44971C8.03402 3.89111 7.59497 3.44255 7.39819 3.104C7.20142 2.76546 7.10303 2.41423 7.10303 2.05029C7.10303 1.4917 7.31885 1.01034 7.75049 0.606201C8.18213 0.202067 8.75553 0 9.4707 0C10.1647 0 10.7233 0.188314 11.1465 0.564941C11.5697 0.941569 11.7812 1.37109 11.7812 1.85352C11.7812 2.17513 11.667 2.50309 11.4385 2.8374C11.21 3.17171 10.7339 3.56527 10.0103 4.01807C10.755 4.59359 11.248 5.04639 11.4893 5.37646C11.8109 5.80811 11.9717 6.26302 11.9717 6.74121C11.9717 7.34635 11.741 7.86369 11.2798 8.29321C10.8185 8.72274 10.2134 8.9375 9.46436 8.9375C8.64762 8.9375 8.01074 8.68148 7.55371 8.16943C7.18978 7.75895 7.00781 7.31038 7.00781 6.82373C7.00781 6.44287 7.13582 6.06519 7.39185 5.69067C7.64787 5.31616 8.08903 4.90251 8.71533 4.44971V4.44971M9.71191 3.77051C10.2197 3.31348 10.5413 2.95272 10.6768 2.68823C10.8122 2.42375 10.8799 2.12435 10.8799 1.79004C10.8799 1.3457 10.755 0.99764 10.5054 0.74585C10.2557 0.494059 9.91504 0.368164 9.4834 0.368164C9.05176 0.368164 8.70052 0.493001 8.42969 0.742676C8.15885 0.99235 8.02344 1.28434 8.02344 1.61865C8.02344 1.8387 8.07951 2.05876 8.19165 2.27881C8.30379 2.49886 8.46354 2.70833 8.6709 2.90723L9.71191 3.77051V3.77051M9.01367 4.69092C8.66243 4.98714 8.40218 5.30981 8.23291 5.65894C8.06364 6.00806 7.979 6.38574 7.979 6.79199C7.979 7.33789 8.12817 7.77482 8.42651 8.10278C8.72485 8.43075 9.10465 8.59473 9.56592 8.59473C10.0229 8.59473 10.389 8.46566 10.6641 8.20752C10.9391 7.94938 11.0767 7.63623 11.0767 7.26807C11.0767 6.96338 10.9963 6.69043 10.8354 6.44922C10.535 6.00065 9.92773 5.41455 9.01367 4.69092V4.69092" fill="#996247"/>
</g>
</svg>
